# xmcd
#
# Track frame offsets:
#	150
#	18554
#	40890
#	57011
#	72968
#	90183
#	109509
#	129814
#	146778
#	173743
#	195301
#	221480
#	240355
#	257283
#	273177
#	290405
#
# Disc length: 4297 seconds
#
# Revision: 0
# Processed by: cddbd v1.5.2PL0 Copyright (c) Steve Scherf et al.
# Submitted via: audiograbber 1.83.01
#
DISCID=ce10c710
DTITLE=Barclay James Harvest - XII [Deluxe Edition ] [CD 1) [Original Stereo Mi
DTITLE=x - remastered 2016]
DYEAR=1978
DGENRE=Progressive Rock
TTITLE0=Loving Is Easy
TTITLE1=Berlin
TTITLE2=A Tale Of Two Sixties
TTITLE3=Turning In Circles
TTITLE4=Fact: The Closed Shop
TTITLE5=In Search Of England
TTITLE6=Sip Of Wine
TTITLE7=Harbour
TTITLE8=Nova Lepidoptera
TTITLE9=Giving It Up
TTITLE10=Fiction: The Streets Of San Francicso
TTITLE11=Berlin [single version] [bonus track]
TTITLE12=Loving Is Easy [single version] [bonus track]
TTITLE13=Turning In Circles [first mix] [bonus track]
TTITLE14=Fact: The Closed Shop [first mix] [bonus track]
TTITLE15=Nova Lepidoptera [ambient instrumental mix] [bonus track]
EXTD=
EXTT0=
EXTT1=
EXTT2=
EXTT3=
EXTT4=
EXTT5=
EXTT6=
EXTT7=
EXTT8=
EXTT9=
EXTT10=
EXTT11=
EXTT12=
EXTT13=
EXTT14=
EXTT15=
PLAYORDER=
